# xmcd CD database file
#
# Track frame offsets:
#	150
#	15231
#	30042
#	49819
#	64978
#	80839
#	98093
#	113023
#	127973
#	145176
#	160878
#	177092
#
# Disc length: 2562 seconds
#
# Revision: 0
# Processed by: cddbd v1.5.2PL0 Copyright (c) Steve Scherf et al.
# Submitted via: CDex 1.51
#
DISCID=8d0a000c
DTITLE=Joy Slone - Reminisce
DYEAR=1900
DGENRE=Country
TTITLE0=Joy Sloane - Leave It There
TTITLE1=Joy Sloane - By A Fire Of Gidgee Coal
TTITLE2=Joy Sloane - Reminisce For A While
TTITLE3=Joy Sloane - Hobo's Meditation
TTITLE4=Joy Sloane - Saddle Boy
TTITLE5=Joy Sloane- Am I The Only Thing You've Done Wrong
TTITLE6=Joy Sloane- From A Rolls To The Rails
TTITLE7=Joy Sloane - When The Moon Above Is Shining
TTITLE8=Joy Sloane - Where Could I Go But To The Lord
TTITLE9=Joy Sloane - It's Not Love But It's Not Bad
TTITLE10=Joy Sloane - A Picture Of Me (Without You)
TTITLE11=Joy Sloane - Daddy Was A Yodelling Cowboy
EXTD=
EXTT0=
EXTT1=
EXTT2=
EXTT3=
EXTT4=
EXTT5=
EXTT6=
EXTT7=
EXTT8=
EXTT9=
EXTT10=
EXTT11=
PLAYORDER=
